<?xml version="1.0" encoding="UTF-8" standalone="no" ?>
<?xml-stylesheet href="author_type_text.css" type="text/css" ?>
  <!DOCTYPE svg PUBLIC "-//W3C//DTD SVG 1.1//EN" "http://www.w3.org/Graphics/SVG/1.1/DTD/svg11.dtd">

  <svg xmlns:xlink="http://www.w3.org/1999/xlink" xmlns:rdf="http://www.w3.org/1999/02/22-rdf-syntax-ns#" xmlns="http://www.w3.org/2000/svg" version="1.1" xmlns:cc="http://creativecommons.org/ns#" xmlns:dc="http://purl.org/dc/elements/1.1/" viewBox="0 0 840 108">
 
   <path class="typeText" id="path4416" d="m28.731 28.393h6.9873v80.42h-6.9873v-80.42z"/>
   <path class="typeText" id="path4418" d="m80.895 33.227 3.7354-1.4062q1.4062-0.52734 7.3389-3.6475h1.9336q0.74707 0 1.3184 0.08789 0.04394 1.2744 0.04394 1.7578l-0.04394 1.8018 0.21973 16.523-0.04395 6.3281q1.2744-1.4062 3.3838-2.9443 0.43945-0.30762 2.417-1.2305 1.9775-0.9668 3.1641-1.2305 2.1094-0.4834 3.7354-0.4834 4.3506 0 7.0752 1.0986 2.7686 1.0986 5.1855 3.4717 2.4609 2.3291 4.1309 6.5479 1.0547 2.6807 1.0547 6.5479 0 2.5049-0.87891 5.6689-0.83496 3.1201-2.7686 6.1084-1.4062 2.1533-3.999 4.2188-2.5488 2.0654-5.8887 3.2959-2.1973 0.83496-7.5146 0.83496-4.8779 0-10.942-3.6035-1.582-0.9668-2.2852-1.3184-0.87891 1.2744-1.9775 3.0762-1.0547 1.8018-1.4502 2.373l-2.1973 0.04395q0-1.0547 0.08789-2.1533 0.13184-1.0986 0.13184-2.0654l-0.04395-3.252 0.13184-1.1426q0.08789-0.70312 0.08789-2.4609v-32.124q0-4.834-0.30762-6.2842-0.08789-0.43945-0.35156-0.61523-0.21973-0.21973-4.4824-1.8018v-2.0215zm14.634 24.038-0.04394 6.8555q0 11.382 0.52734 13.623 0.57129 2.2412 2.9443 3.9111 2.373 1.626 5.0098 1.626 1.9336 0 3.8672-0.79102t2.9443-1.7578q1.5381-1.4502 2.2852-3.0762 1.1865-2.5488 1.4941-4.6582 0.39551-2.9004 0.39551-4.6143 0-3.6035-1.4941-7.1191-1.4502-3.5596-4.1309-5.2734-2.6367-1.7578-5.7568-1.7578-1.9336 0-4.5703 1.0986t-3.4717 1.9336z"/>
   <path class="typeText" id="path4420" d="m128.14 50.717q1.5381-0.26367 2.5488-0.26367 0.52734 0 1.1865 0.04395 3.999 0.26367 6.5039 0.26367h2.2852l6.2402-0.35156q0.35156 0.26367 0.61523 0.57129-0.13183 1.9336-0.21972 2.4609-0.65918 0.13184-1.0107 0.17578-1.0108 0.13184-1.4941 0.26367-0.4834 0.08789-1.0547 0.17578-0.65918 0.17578-0.74707 0.61523 0.26367 1.0547 0.52734 1.7578l2.1094 4.3066q2.5049 6.1523 5.1416 11.338l2.4609 5.0537q0.26367-0.52734 3.3838-8.6572 3.7354-9.624 4.043-10.854 0.17578-0.65918 0.17578-1.1426 0-0.43945-0.26367-1.4502-0.96679-0.70312-1.582-0.87891-0.61523-0.21973-2.8564-0.4834l-1.4062-0.35156-0.13184-0.61523q-0.0439-0.43945-0.0439-0.65918 0-0.35156 0.13184-1.1426 1.3184-0.08789 1.8896-0.08789l3.5596 0.21973 2.373 0.08789q1.4941 0 5.1855-0.43945 2.2852-0.26367 3.4277-0.30762 0.0879 1.0986 0.0879 1.6699 0 0.26367-0.0439 0.79102-0.79101 0.39551-1.7578 0.61523-1.582 0.39551-2.7686 0.74707-0.65918 0.52734-0.87891 0.87891-0.74707 1.6699-3.0322 7.2949l-3.1641 8.4814-7.3389 17.49-5.0537 11.602q-1.6699 3.3398-3.9111 5.7568-0.83496 0.92285-1.9336 1.4062-1.8018 0.70313-4.0869 0.70313-0.21972 0-2.417-0.30762-1.8018-0.43945-3.1201-1.8896-0.92285-1.0547-0.92285-2.2412 0-2.417 2.0654-4.4824 1.8457-1.1426 2.7246-1.1426 1.9775 0 4.6143 2.0654 1.2305 1.0107 1.9775 1.0107 0.74707 0 1.1865-0.83496 3.8232-7.4268 4.9219-10.547l-8.1299-17.886q-4.5703-10.767-6.9873-15.073-1.2305-2.1973-1.7578-2.5928-0.4834-0.39551-1.5381-0.70312-0.57129-0.13184-1.3184-0.52734-0.21973-1.0107-0.39551-1.9336z"/>
   <path class="typeText" id="path4422" d="m200.16 33.886q0-2.4609 1.626-4.043 1.6699-1.582 4.3506-1.582 2.0215 0 3.6475 1.4062 1.6699 1.4062 1.6699 4.1309 0 2.4609-1.626 4.1309-1.582 1.626-3.999 1.626-2.6367 0-4.1748-1.5381-1.4941-1.582-1.4941-4.1309zm-4.7022 21.27-0.0439-2.373q4.4824-0.57129 6.1963-1.3184 1.7578-0.79102 7.0312-4.7461l1.0547 0.04395h0.4834q0.26367 0 0.61523 0.04395v0.79102l0.0879 2.9443-0.0439 2.5049q0 4.6582 0.13184 7.0312l0.0439 1.2744-0.0439 2.5488q0 4.9658 0.0879 6.5479 0.13183 1.5381 0.13183 2.9443l-0.0439 16.172q0 3.208-1.4941 6.2402-1.4502 3.0762-4.8779 6.3281-3.3838 3.2959-6.3281 4.9219l-2.373-2.1094q0.3955-0.57129 1.4062-1.8896 3.1201-3.9551 3.7793-6.1523 0.70313-2.1973 0.70313-10.063l-0.21973-7.251-0.0439-3.1201v-2.9883l-0.21973-16.392q-0.26367-0.57129-0.65918-0.70312-1.6699-0.61523-5.3613-1.2305z"/>
   <path class="typeText" id="path4424" d="m254.92 54.101q2.8125 2.7246 4.1748 6.2842 1.4062 3.5156 1.4062 6.6357 0 5.8887-1.8018 9.4922-2.7246 5.4492-7.3389 8.042t-10.723 2.5928q-6.8555 0-11.646-3.0762-4.7461-3.0762-6.8115-6.9873-2.0215-3.9111-2.0215-9.7119 0-2.9443 0.96679-5.8887 0.9668-2.9883 2.6367-5.1855 1.7139-2.1973 3.7354-3.6914 2.9443-2.1094 5.8887-2.9883 2.9883-0.92285 7.207-0.92285 9.1846 0 14.326 5.4053zm-24.038 15.205q0.39551 5.4492 0.57129 6.2842 0.57129 2.9443 1.8018 5.0537 0.83496 1.3623 2.7686 2.417t4.6143 1.0547q3.208 0 5.4053-2.0215 2.1973-2.0654 3.1641-6.416 0.61523-2.8564 0.61523-9.3604 0-7.998-2.6367-11.294-2.6367-3.3398-6.9434-3.3398-3.3838 0-5.625 1.8896-2.1973 1.8896-3.0762 5.5811-0.57129 2.373-0.65918 10.151z"/>
   <path class="typeText" id="path4426" d="m267.75 73.832q1.3184-0.26367 1.9336-0.26367 0.30762 0 0.92286 0.04395l0.3955 0.43945q2.373 4.1748 3.1201 5.0537 1.5381 1.8018 3.0322 2.9004 1.0107 0.70312 3.1641 1.4502 1.4502 0.52734 3.0762 0.52734 2.7686 0 4.7461-1.7578 1.9775-1.8018 1.9775-3.8672 0-1.4062-0.74707-2.373-0.74707-1.0107-2.9883-1.9775-1.0986-0.4834-5.5371-1.582-4.3945-1.0986-5.3174-1.4502-2.0654-0.79102-3.6914-2.1973-1.582-1.4062-2.417-3.1641-1.1426-2.5049-1.1426-4.3066 0-3.3398 0.9668-5.4492 0.9668-2.1533 2.7246-3.7793 1.2744-1.2305 3.8232-2.2412 2.5928-1.0107 5.5371-1.0107 4.1748 0 7.3389 0.57129t5.3613 1.7139q0.26367 1.0107 0.74707 4.6582t0.4834 4.3066q0 0.30762-0.13184 0.65918-1.1426 0.35156-1.8896 0.35156-0.43945 0-1.2744-0.08789-0.39551-0.61523-1.0547-1.8457-2.1094-3.9111-4.3506-5.4932-2.1973-1.626-5.0976-1.626-3.0322 0-5.0977 1.7578-1.4941 1.2744-1.4941 3.4717 0 1.4502 1.582 2.9443 1.5381 1.5381 5.3613 2.3291 5.7568 1.2744 8.4814 2.5488 3.9551 1.8457 5.5371 4.3506 1.626 2.5049 1.626 5.8008 0 5.0977-3.8672 8.5254-3.8232 3.3838-11.206 3.3838-0.9668 0-5.0537-0.43945-1.8457-0.21973-4.3506-0.87891-0.61523-0.17578-3.208-1.2744-0.48339-0.26367-0.70312-0.61523-0.17578-0.39551-0.57129-3.6914-0.70312-5.3613-0.74707-6.416z"/>
   <path class="typeText" id="path4428" d="m302.91 83.368q0.70312-0.17578 3.9111-0.52734 1.4062-0.17578 1.7578-0.61523 0.43945-0.65918 0.43945-3.1201v-3.1201l0.13183-3.2959v-3.6035l0.0439-0.87891-0.0439-2.1973 0.0879-0.74707 0.17579-15.952v-1.2305q0-8.1738-0.43946-10.107-0.26367-1.1426-1.2744-1.8018-0.9668-0.65918-4.6143-1.2305v-0.92285q0-0.65918 0.0879-1.626l3.6914-0.79102q1.0986-0.30762 2.1094-0.52734 2.4609-0.52734 6.1963-2.1973 0.65918-0.39551 1.2305-0.65918l2.373 0.17578-0.0879 26.279q3.999-3.1641 7.2949-4.4824 3.2959-1.3184 6.8555-1.3184 3.3838 0 5.8447 1.2305 2.5049 1.1865 3.8672 2.9883 1.3623 1.7578 1.9336 4.3066 0.3955 1.7139 0.3955 6.5918v2.8125l0.044 6.1963-0.21973 8.9648q0.17578 0.39551 0.39551 0.52734 0.52734 0.21973 2.5928 0.61523 1.1865 0.21973 1.8457 0.39551 0.35156 0.65918 0.35156 1.0547l-0.0439 0.35156q-0.0879 0.4834-0.0879 1.4502l-1.0107 0.04395q-0.65918 0-2.5928-0.17578-3.6914-0.35156-6.1963-0.35156-1.626 0-4.3506 0.17578-1.9336 0.08789-4.9219 0.08789-0.4834 0-0.87891-0.13184v-1.0547l-0.0879-0.57129q0-0.35156 0.21973-0.9668 1.0107-0.4834 2.3291-0.61523 1.3623-0.17578 2.5488-0.35156 0.17578-0.83496 0.21972-1.0547l0.21973-6.416v-10.767q0-4.79-0.52734-6.46-0.52735-1.7139-2.1973-2.7686-1.6699-1.0986-4.043-1.0986-2.7686 0-5.4053 1.3184-2.5928 1.2744-4.4385 3.0322v7.6904q0 6.3281-0.13183 9.4922-0.0879 1.8896-0.0879 2.373 0 3.0322 0.3955 4.1748 0.17578 0.52734 0.9668 0.9668 1.626 0.13184 2.6807 0.17578 1.0986 0 1.7578 0.17578 0.0879 1.0986 0.0879 1.5381 0 0.61524-0.17578 1.4941l-4.8779-0.21973q-2.7686-0.21973-4.9658-0.21973l-6.1524 0.30762-4.3066-0.04394q-0.43945-0.61524-0.92285-2.1973v-0.57129z"/>
   <path class="typeText" id="path4430" d="m353.05 50.541q0.4834-0.17578 0.79102-0.26367h13.096l0.9668 0.08789 0.0439 2.9443-0.0879 4.3066 0.0439 2.2412-0.0439 6.6357v4.5264q0 4.4385 0.4834 6.9873 0.65918 1.9336 2.1094 2.9443 1.4941 0.9668 3.6035 0.9668 1.9775 0 3.208-0.39551t2.8125-1.4941q1.626-1.0986 2.0654-1.582 1.2744-1.4062 1.7578-2.5928l0.30762-10.942q0.0879-1.7139 0.0879-2.8125 0-1.1426-0.0879-2.8564-0.0439-1.7578-0.0439-1.9775l0.0439-1.626-0.0879-0.9668q-1.0547-0.65918-2.9443-0.83496l-2.9443-0.21973q-0.26368-0.13184-0.4834-0.30762-0.17578-0.87891-0.17578-1.3184 0-0.52734 0.13183-1.4941 1.4502-0.21973 2.5049-0.21973l6.7676 0.08789q2.7246 0 6.6797-0.08789l0.0879 3.2959-0.13184 4.2188 0.0879 5.2734-0.0439 7.5586-0.0879 3.3838 0.0439 2.2852q-0.17578 2.2852-0.17578 2.5928 0 1.0986 0.39551 1.626 0.39551 0.52734 0.74707 0.52734l4.043-0.13184 0.52734 0.08789q0.13184 1.5381 0.13184 1.7578 0 0.30762-0.13184 0.9668-2.3291 0.08789-3.3398 0.30762-4.7022 1.0547-10.283 3.1201l-1.7578-0.08789-0.0439-7.1631q-0.52734 0.43945-1.5381 1.3623-3.8672 3.4277-6.6357 4.6582-2.7686 1.1865-5.8008 1.1865-3.6035 0-6.2402-1.4941t-3.8672-3.6914q-0.92285-1.7139-1.2305-4.9219-0.0879-0.83496-0.0879-8.6133l0.0439-1.4062q0.21973-4.3066 0.21973-6.3721 0-3.5156-0.13184-4.7021-0.0439-0.57129-0.43945-1.3184-0.61523-0.26367-1.4502-0.39551-2.8125-0.4834-3.5156-0.92285-0.21973-0.13184-0.21973-0.57129 0-0.26367 0.0439-0.70312 0.0879-0.43945 0.17578-1.4502z"/>
   <path class="typeText" id="path4432" d="m441.38 77.875 1.0107 0.65918q0.39551 0.30762 0.4834 0.74707l0.0439 0.21973q-1.0547 3.9111-2.7686 5.4053-1.7139 1.4502-4.2627 1.4502-2.5928 0-4.4824-1.4062-1.8457-1.4502-3.3838-5.0537-1.8896 3.3398-5.3174 5.0537-3.4277 1.6699-8.3936 1.6699-4.5703 0-6.7236-1.8896-2.1533-1.9336-2.1533-5.0537 0-1.4502 0.61524-2.9443 0.65918-1.4941 2.0654-2.9443 1.4502-1.4941 4.6143-3.252 0.48339-0.26367 3.3398-1.4941l10.942-4.3945q0.13184-1.6699 0.13184-3.3838 0-5.9326-1.4502-8.0859-0.8789-1.3184-3.0762-1.3184t-4.043 0.83496-2.6807 2.1533q-0.61524 0.9668-1.0547 3.6475-0.30762 1.9336-0.57129 2.2412-0.65918 0.83496-2.417 1.5381-1.7139 0.65918-2.3291 0.9668-2.373 1.1426-3.7793 1.1426-0.61523-0.52734-0.61523-1.4941 0-2.5049 1.0547-4.3066 1.582-2.5488 4.7461-4.9219 3.208-2.417 5.9766-3.3838 3.7793-1.2305 9.2285-1.2305 3.5156 0 6.0205 1.3184 2.5488 1.2744 3.5156 3.8232 1.0107 2.5488 1.0107 9.1846l-0.13183 7.251 0.0879 5.3174v1.3623q0 1.8457 0.48339 2.5488 0.52735 0.65918 1.3184 0.65918 0.4834 0 0.83496-0.26367l1.3184-2.0654 0.79102-0.30762zm-14.42-10.195q-2.5049 0.83496-5.669 2.8125-3.1201 1.9336-4.3506 3.9111-0.87891 1.4502-0.87891 3.5596 0 1.8896 1.1426 3.1201t2.6367 1.2305q2.4609 0 4.1748-1.4062 2.3291-1.8896 2.7246-2.9883 0.39551-1.1426 0.39551-6.3721 0-1.9336-0.17578-3.8672z"/>
   <path class="typeText" id="path4434" d="m506.94 77.875 1.0107 0.65918q0.39551 0.30762 0.4834 0.74707l0.0439 0.21973q-1.0547 3.9111-2.7686 5.4053-1.7139 1.4502-4.2627 1.4502-2.5928 0-4.4824-1.4062-1.8457-1.4502-3.3838-5.0537-1.8896 3.3398-5.3174 5.0537-3.4277 1.6699-8.3936 1.6699-4.5703 0-6.7236-1.8896-2.1533-1.9336-2.1533-5.0537 0-1.4502 0.61523-2.9443 0.65918-1.4941 2.0654-2.9443 1.4502-1.4941 4.6143-3.252 0.4834-0.26367 3.3398-1.4941l10.942-4.3945q0.13183-1.6699 0.13183-3.3838 0-5.9326-1.4502-8.0859-0.87891-1.3184-3.0762-1.3184t-4.043 0.83496-2.6807 2.1533q-0.61523 0.9668-1.0547 3.6475-0.30762 1.9336-0.57129 2.2412-0.65918 0.83496-2.417 1.5381-1.7139 0.65918-2.3291 0.9668-2.373 1.1426-3.7793 1.1426-0.61524-0.52734-0.61524-1.4941 0-2.5049 1.0547-4.3066 1.582-2.5488 4.7461-4.9219 3.208-2.417 5.9766-3.3838 3.7793-1.2305 9.2285-1.2305 3.5156 0 6.0205 1.3184 2.5488 1.2744 3.5156 3.8232 1.0107 2.5488 1.0107 9.1846l-0.13184 7.251 0.0879 5.3174v1.3623q0 1.8457 0.4834 2.5488 0.52734 0.65918 1.3184 0.65918 0.4834 0 0.83496-0.26367l1.3184-2.0654 0.79102-0.30762zm-14.41-10.195q-2.5049 0.83496-5.6689 2.8125-3.1201 1.9336-4.3506 3.9111-0.8789 1.4502-0.8789 3.5596 0 1.8896 1.1426 3.1201t2.6367 1.2305q2.4609 0 4.1748-1.4062 2.3291-1.8896 2.7246-2.9883 0.3955-1.1426 0.3955-6.3721 0-1.9336-0.17578-3.8672z"/>
   <path class="typeText" id="path4436" d="m509.67 84.203q0.96679-0.65918 2.5488-0.83496 3.0322-0.35156 3.4717-0.92285 0.87891-1.1426 0.87891-4.6582v-12.393l-0.0439-2.9443v-8.877l-0.13183-10.151v-1.7578q0-3.6035-0.57129-5.3174-1.5381-0.92285-3.2959-0.92285-1.0547 0-1.9775-0.21973-0.13183-1.0986-0.13183-1.626 0-0.35156 0.0879-0.79102 3.4717-0.39551 7.207-1.7578 3.7354-1.4062 5.7129-2.8564l1.2305-0.04395q0.3955 0 1.1426 0.04395 0.21973 15.205 0.21973 20.83 0 1.6699-0.0439 2.6807v0.26367l0.0439 0.83496v19.468l0.0439 6.416v1.0547q0 1.8896 0.61523 2.6807 0.52734 0.57129 2.2412 0.70312 0.92285 0.08789 3.6475 0.43945 0.21973 0.92285 0.21973 1.4941 0 0.43945-0.0879 1.2305l-3.4717-0.17578q-2.9004-0.21973-7.2949-0.21973l-1.626-0.04394q-2.5049 0-7.251 0.39551h-3.208l-0.17578-2.0215z"/>
   <path class="typeText" id="path4438" d="m536.52 62.846q1.1426-3.7354 2.0215-4.9658 2.4609-3.6035 5.2295-5.625 2.8125-2.0215 5.0537-2.6807 2.9004-0.83496 4.7022-0.83496 4.1309 0 6.6797 0.65918 2.5488 0.61524 4.2627 1.8018 2.4609 1.7139 3.9551 3.4717 1.4941 1.7578 2.417 4.1309 0.9668 2.373 1.0547 5.7568l-4.8779-0.08789q-2.0215 0-8.877-0.39551-2.5488-0.17578-3.5156-0.17578-0.30762 0-4.7461 0.04395h-3.7793q-0.0879 0.61523-0.0879 1.0547 0 2.3291 0.57129 4.9219 0.57129 2.5488 1.7139 4.5264 1.1426 1.9336 2.8125 3.3398 1.7139 1.4062 3.5156 2.0215l2.5488 0.83496q3.3838 0 4.5264-0.21973 2.1094-0.43945 3.6914-1.0986 1.626-0.70312 3.9111-2.3291 1.582 1.1426 2.6367 2.0654-3.8672 4.2627-8.042 6.1963-4.1309 1.8896-9.2725 1.8896-3.4717 0-5.669-0.61523-2.9443-0.79102-5.3174-2.417-2.373-1.626-4.0869-4.043t-2.5488-4.9658q-1.0986-3.3398-1.0986-5.3613 0-3.8232 0.61523-6.8994zm25.532-1.8896q-0.0439-2.4609-0.9668-4.7021-0.92285-2.2412-2.8564-3.4717-1.9336-1.2744-3.9111-1.2744-2.9443 0-5.3174 2.5928-2.373 2.5928-2.6807 7.0312l10.02 0.04395q0.96679 0 2.7246-0.13184 1.2744-0.13184 1.8018-0.13184 0.39551 0 1.1865 0.04395z"/>
   <path class="typeText" id="path4440" d="m575.76 84.115q2.1973-0.74707 3.7354-1.582 1.0107-0.57129 1.7139-1.1865 0.74707-0.61524 3.3838-3.1641l8.042-7.9541 0.57128-0.65918q-0.26367-0.21973-5.2295-5.1416l-0.57129-0.83496q-1.9336-1.9775-2.9883-3.1641l-0.8789-0.79102q-3.0322-3.4717-4.2188-4.4824-0.35157-0.30762-2.2412-1.2305-0.30761-0.17578-0.96679-0.52734-0.26367-0.9668-0.26367-1.4062 0-1.0547 0.21972-1.4062 0.21973-0.17578 0.57129-0.21973 0.70313 0.08789 1.0107 0.08789l1.2744-0.04395 0.65918 0.08789 2.2852 0.13184q3.3398 0 8.3936-0.30762h4.79q0.0879 0.65918 0.0879 1.0986 0 0.57129-0.35156 1.4941-1.8896 0.61524-2.6807 1.2744l-0.17578 0.43945q0 0.35156 0.52734 0.87891l7.0752 7.6025 6.1963-7.4268q0.74707-1.0986 0.74707-1.582v-0.30762q-1.0107-0.65918-3.8232-1.0986-0.17578-0.92285-0.17578-1.6699v-0.70312h0.79101q0.79102 0 2.7686 0.21973 2.9883 0.04395 5.0537 0.17578 0.65918 0 1.8018-0.17578 1.626-0.21973 1.9775-0.21973l0.79102 0.04395h1.8896v0.65918q0 0.74707-0.26367 1.582-0.70313 0.39551-1.9336 0.74707-2.9443 0.83496-4.043 1.5381-0.3955 0.26367-2.7686 2.6807-4.6582 4.834-6.8994 7.5586l7.9102 9.0967q4.6582 5.7129 5.9766 7.0312 1.0547 1.0107 2.8564 2.1973 0.26367 0.57129 0.26367 1.3623v1.2744q-0.9668 0-1.7139-0.04394-5.7129-0.35156-8.2178-0.35156-0.52734 0-1.9336 0.13184h-1.4062q-3.208 0.35156-5.2295 0.35156l-0.57129-0.04394q-0.0879-0.83496-0.0879-1.2305 0-0.30762 0.0439-0.87891 1.1426-0.70312 2.3291-1.2305 0.65918-0.35156 1.4502-0.87891-0.13184-0.9668-0.43946-1.4502-0.4834-0.74707-1.9775-2.2412-0.48339-0.39551-3.1201-3.6035-1.0547-1.2305-2.417-2.5488-5.2734 4.8779-6.5918 6.6797-0.83496 1.1865-0.83496 2.1094 0 0.74707 0.4834 1.3623 0.52734 0.61523 1.7578 1.0547 0.83496 0.26367 1.4062 0.52734l0.57129 0.21973q0.0879 0.43945 0.0879 0.65918 0 0.4834-0.30762 1.3623-0.65918 0-1.8896-0.17578-1.9336-0.21973-4.3066-0.21973-3.3398 0-6.6357 0.26367-2.1973 0.13184-3.2959 0.17578-0.0439-0.79102-0.0439-1.1865v-0.79102z"/>
   <path class="typeText" id="path4442" d="m660.58 77.875 1.0107 0.65918q0.39551 0.30762 0.4834 0.74707l0.0439 0.21973q-1.0547 3.9111-2.7686 5.4053-1.7139 1.4502-4.2627 1.4502-2.5928 0-4.4824-1.4062-1.8457-1.4502-3.3838-5.0537-1.8896 3.3398-5.3174 5.0537-3.4277 1.6699-8.3936 1.6699-4.5703 0-6.7236-1.8896-2.1533-1.9336-2.1533-5.0537 0-1.4502 0.61524-2.9443 0.65918-1.4941 2.0654-2.9443 1.4502-1.4941 4.6142-3.252 0.4834-0.26367 3.3398-1.4941l10.942-4.3945q0.13184-1.6699 0.13184-3.3838 0-5.9326-1.4502-8.0859-0.8789-1.3184-3.0762-1.3184t-4.043 0.83496-2.6807 2.1533q-0.61524 0.9668-1.0547 3.6475-0.30762 1.9336-0.57129 2.2412-0.65918 0.83496-2.417 1.5381-1.7139 0.65918-2.3291 0.9668-2.373 1.1426-3.7793 1.1426-0.61523-0.52734-0.61523-1.4941 0-2.5049 1.0547-4.3066 1.582-2.5488 4.7461-4.9219 3.208-2.417 5.9766-3.3838 3.7793-1.2305 9.2285-1.2305 3.5156 0 6.0205 1.3184 2.5488 1.2744 3.5156 3.8232 1.0107 2.5488 1.0107 9.1846l-0.13184 7.251 0.0879 5.3174v1.3623q0 1.8457 0.4834 2.5488 0.52735 0.65918 1.3184 0.65918 0.4834 0 0.83496-0.26367l1.3184-2.0654 0.79102-0.30762zm-14.42-10.195q-2.5049 0.83496-5.669 2.8125-3.1201 1.9336-4.3506 3.9111-0.8789 1.4502-0.8789 3.5596 0 1.8896 1.1426 3.1201t2.6367 1.2305q2.4609 0 4.1748-1.4062 2.3291-1.8896 2.7246-2.9883 0.39551-1.1426 0.39551-6.3721 0-1.9336-0.17578-3.8672z"/>
   <path class="typeText" id="path4444" d="m664.8 83.896q1.1426-0.52734 2.1094-0.70312 2.417-0.39551 2.8125-0.65918 0.65918-0.39551 0.87891-0.9668 0.26367-0.87891 0.26367-3.8672v-3.8232l0.0439-3.1201-0.13184-4.6143v-2.7686q0-2.7686-0.43945-4.5264-0.17578-0.65918-1.0986-1.3184-1.2305-0.87891-4.1748-1.7139l-0.0439-2.1094q0.57129-0.17578 1.0108-0.21973 0.4834-0.08789 3.5596-0.87891 2.417-0.87891 3.1201-1.2305 0.21973-0.13184 0.70313-0.39551 0.52734-0.43945 1.1865-0.87891 1.3184-0.92285 3.1641-3.208l2.3291-0.17578-0.0879 4.9658q-0.0439 0.74707-0.0439 1.1865 0 0.35156 0.0439 2.0215 3.6475-3.1641 6.6357-4.3945 3.9111-1.626 7.4268-1.626 4.1309 0 7.251 2.0654 3.1201 2.0215 4.0869 4.7021 0.96679 2.6807 0.96679 10.811l-0.17578 14.326q0 1.0107 0.35157 1.6699 0.43945 0.35156 2.417 0.65918l2.15 0.395q0.39551 0.57129 0.39551 1.4062 0 0.52734-0.0439 1.4502l-8.6133-0.61523-2.5488 0.08789h-2.0215l-5.8008 0.43945h-1.4942q-0.0439-0.57129-0.0439-0.87891 0-0.79102 0.0879-1.7139 0.61523-0.13184 3.0762-0.43945 0.65918-0.08789 1.4502-0.30762 0.8789-0.35156 1.0107-0.70312 0.35156-0.74707 0.35156-2.8564 0-3.6914-0.0879-5.6689l0.0439-5.0977q0.0439-9.2725-1.1426-11.558-1.6699-3.2959-5.0098-3.2959-2.4609 0-5.0976 1.2744-2.6367 1.2305-5.4492 3.7793l-0.0879 0.74707 0.0879 2.7686-0.0439 2.9443 0.17578 7.0312-0.0879 1.0986q0 7.1631 0.57129 8.0859 0.57129 0.92285 4.3506 2.0215 0.13183 0.74707 0.13183 1.0986 0 0.52734-0.30761 1.626-1.3623 0.04395-2.2852 0.04395-0.92285 0-2.9004-0.26367l-4.7022-0.08789q-3.5156 0-10.151 0.30762-0.17578-0.43945-0.17578-0.92285 0-0.35156 0.0439-1.4062z"/>
   <path class="typeText" id="path4446" d="m724.34 52.431q2.1533-1.4941 4.1309-2.1533 2.0215-0.65918 5.6689-1.0107h2.4609q4.79 0 9.1846 3.2959l0.0879-1.0547-0.0439-2.9443 0.17579-4.7021q0-7.4268-1.1426-9.4043-0.65918-1.1865-2.3291-1.2744-1.626-0.08789-2.6367-0.57129v-2.1094q0.83496-0.26367 2.1533-0.26367 1.3184-0.04395 5.1416-0.92285l1.4941-0.30762 4.3506-1.0107q1.3184-0.30762 1.626-0.30762 0.21973 0 0.70313 0.08789 0.26367 0.92285 0.26367 1.3623l-0.0439 0.65918v0.79102q0 1.2305 0.13184 6.5479v2.373l0.0439 1.2744-0.0439 2.1973 0.13184 4.5703-0.0879 2.6807q-0.0879 1.7578-0.0879 5.5371 0 0.61523 0.0439 1.0986v1.626q-0.0439 0.70312-0.0439 1.0547 0 0.65918 0.13184 1.8896v2.417l-0.0439 0.92285q-0.0879 1.2744-0.0879 3.5156 0 2.2852 0.0879 4.1309 0.0439 0.74707 0.0439 1.3623v3.2959q0 1.582 0.0879 3.7793 0.79102 0.4834 3.8672 0.70312 0.9668 0.04395 1.7139 0.21973 0.21972 0.65918 0.21972 0.9668 0 0.39551-0.30761 1.1865-1.8018 0.43945-3.7793 0.65918-6.0205 0.74707-8.5693 2.1094-1.2305 0.70312-1.7139 0.70312t-1.0986-0.08789q0.0439-0.79102 0.0439-1.0107 0-2.9883-0.13184-3.8232-0.65918 0.35156-1.626 0.92285-2.9443 1.7578-5.3613 2.4609-2.417 0.65918-5.5371 0.65918-5.5371 0-8.833-2.1094-4.8779-3.0762-6.7676-7.3828-1.8457-4.3066-1.8457-9.4482 0-8.877 8.1738-15.161zm13.535 29.092q0.92285 0.08789 1.582 0.08789 1.4502 0 3.0762-0.61524 1.6699-0.61523 3.5156-1.8018 0.0439-1.4502 0.0439-1.8018 0-13.931-0.39551-16.787-0.52735-3.8232-2.9004-5.8887-2.373-2.0654-5.7568-2.0654-1.9336 0-3.6914 0.70312-1.7139 0.70312-2.8125 2.0215-1.626 1.9336-2.4609 4.3945-1.1426 3.4277-1.1426 6.416 0 7.1631 3.0322 10.986 3.0322 3.7793 7.9102 4.3506z"/>
   <path class="typeText" id="path4448" d="m766.27 62.846q1.1426-3.7354 2.0215-4.9658 2.4609-3.6035 5.2295-5.625 2.8125-2.0215 5.0537-2.6807 2.9004-0.83496 4.7022-0.83496 4.1309 0 6.6797 0.65918 2.5488 0.61524 4.2627 1.8018 2.4609 1.7139 3.9551 3.4717 1.4941 1.7578 2.417 4.1309 0.9668 2.373 1.0547 5.7568l-4.8779-0.08789q-2.0215 0-8.877-0.39551-2.5488-0.17578-3.5156-0.17578-0.30761 0-4.7461 0.04395h-3.7793q-0.0879 0.61523-0.0879 1.0547 0 2.3291 0.57129 4.9219 0.57129 2.5488 1.7139 4.5264 1.1426 1.9336 2.8125 3.3398 1.7139 1.4062 3.5156 2.0215l2.5488 0.83496q3.3838 0 4.5264-0.21973 2.1094-0.43945 3.6914-1.0986 1.626-0.70312 3.9111-2.3291 1.582 1.1426 2.6367 2.0654-3.8672 4.2627-8.042 6.1963-4.1308 1.8896-9.2725 1.8896-3.4717 0-5.6689-0.61523-2.9443-0.79102-5.3174-2.417-2.373-1.626-4.0869-4.043t-2.5488-4.9658q-1.0986-3.3398-1.0986-5.3613 0-3.8232 0.61523-6.8994zm25.532-1.8896q-0.0439-2.4609-0.9668-4.7021-0.92285-2.2412-2.8564-3.4717-1.9336-1.2744-3.9111-1.2744-2.9443 0-5.3174 2.5928-2.373 2.5928-2.6807 7.0312l10.02 0.04395q0.9668 0 2.7246-0.13184 1.2744-0.13184 1.8018-0.13184 0.39551 0 1.1865 0.04395z"/>
   <path class="typeText" id="path4450" d="m806.39 83.983q0.57128-0.4834 1.4941-0.70312 2.2412-0.4834 4.2627-1.7578 0.39551-1.0547 0.39551-7.1191 0-11.118-0.4834-15.029-0.0879-0.70312-0.70312-1.2305-1.0986-0.57129-2.9883-1.0107-0.8789-0.21973-1.0547-0.9668l-0.13184-1.626q3.252-0.43945 5.8887-2.1973 2.6367-1.8018 3.9551-3.6475 0.70313-1.0107 1.2305-1.5381l3.0762-0.13184q0.21973 1.0107 0.21973 1.6699 0 0.4834-0.0439 1.1865-0.0439 1.5381-0.0439 2.5488 0 0.4834 0.0439 3.6475 1.8018-3.0762 2.6367-4.1309 0.39551-0.4834 2.3291-2.1533 1.4941-1.0986 3.3838-1.0986 2.3291 0 4.043 1.582t1.7139 3.6475q0 2.0654-1.3184 3.7354-1.2744 1.626-3.4277 1.626-1.8896 0-3.9551-1.582-1.2305-0.9668-1.9775-0.9668l-0.30762 0.04395q-0.92285 0.30762-1.6699 1.6699-1.2305 2.1973-1.2305 4.5703l0.0879 1.1865q0.17578 3.252 0.26367 15.249 0.13184 1.0986 0.83496 2.1973 0.79102 0.61523 1.582 0.87891 0.83496 0.26367 2.8564 0.43945 2.0215 0.17578 2.4609 0.57129 0.43945 0.35156 0.43945 1.1865 0 0.4834-0.26367 1.2744h-4.1309l-8.3936-0.43945q-3.1641 0-5.7568 0.26367h-0.74707q-0.30762 0-4.5703 0.21973-0.13184-0.70312-0.13184-1.0547 0-0.35156 0.13184-1.0107z"/>
      
  </svg>